<svg xmlns="http://www.w3.org/2000/svg" width="405" height="390" viewBox="0 0 405 390">
  <metadata><?xpacket begin="﻿" id="W5M0MpCehiHzreSzNTczkc9d"?>
<x:xmpmeta xmlns:x="adobe:ns:meta/" x:xmptk="Adobe XMP Core 5.6-c140 79.160451, 2017/05/06-01:08:21        ">
   <rdf:RDF xmlns:rdf="http://www.w3.org/1999/02/22-rdf-syntax-ns#">
      <rdf:Description rdf:about=""/>
   </rdf:RDF>
</x:xmpmeta>
                                                                                                    
                                                                                                    
                                                                                                    
                                                                                                    
                                                                                                    
                                                                                                    
                                                                                                    
                                                                                                    
                                                                                                    
                                                                                                    
                                                                                                    
                                                                                                    
                                                                                                    
                                                                                                    
                                                                                                    
                                                                                                    
                                                                                                    
                                                                                                    
                                                                                                    
                                                                                                    
                           
<?xpacket end="w"?></metadata>
<defs>
    <style>
      .cls-1 {
        fill: #f6f6f6;
        fill-rule: evenodd;
      }
    </style>
  </defs>
  <path id="Forma_1" data-name="Forma 1" class="cls-1" d="M380.5,161.934H300.264a7.357,7.357,0,1,0,0,14.714h67l21.341,198.639H16.694L41.745,176.648h67.122a7.357,7.357,0,1,0,0-14.714H28.759L0,390H405ZM196.21,279.315c-1.083.64-2.238,1.207-3.276,1.876-1.62,1.045-3.2,2.141-4.756,3.274a7.362,7.362,0,0,0,8.716,11.867c1.31-.964,2.643-1.891,4.034-2.789a81.13,81.13,0,0,1,7.465-4.274,7.3,7.3,0,0,0,3.4-9.336c0.059-.059.132-0.1,0.184-0.162,13.317-14.1,58.192-66.919,76.772-154.924,3.769-17.848,4.616-34.975,2.518-50.9C284.937,25.571,254.866,0,204.307,0c-50.543,0-80.615,25.573-86.961,73.945-2.09,15.935-1.244,33.062,2.525,50.9C138.268,212,182.436,264.615,196.21,279.315ZM131.944,75.864c5.4-41.14,29.07-61.144,72.37-61.144s66.975,20,72.364,61.144c1.877,14.273,1.089,29.744-2.327,45.959-16.7,79.11-56.528,129.307-70.037,144.536-13.522-15.244-53.34-65.463-70.036-144.536C130.855,105.608,130.074,90.144,131.944,75.864Zm72.37,63.351a54.045,54.045,0,1,0-54.077-54.044A54.118,54.118,0,0,0,204.314,139.215Zm0-93.368A39.33,39.33,0,1,1,164.96,85.178,39.39,39.39,0,0,1,204.314,45.847Zm27.039,220.24a7.358,7.358,0,0,0,3.077,14.39c4.314-.912,8.988-1.684,13.884-2.3a7.354,7.354,0,1,0-1.811-14.6C241.181,264.233,236.079,265.079,231.353,266.087Zm38.066,2.987a7.355,7.355,0,0,0,7.347,7.041c0.11,0,.213,0,0.324-0.008l14.73-.61a7.354,7.354,0,0,0,7.015-7.681,7.545,7.545,0,0,0-7.685-7.019l-14.693.611A7.347,7.347,0,0,0,269.419,269.074Zm-104.282,33.85c-3.784,2.854-7.693,5.6-11.631,8.144a7.362,7.362,0,0,0,8.024,12.345c4.218-2.737,8.421-5.68,12.477-8.74A7.361,7.361,0,1,0,165.137,302.924ZM329.2,254.411a26.233,26.233,0,0,1-9.908,3.87,7.359,7.359,0,1,0,2.981,14.412,40.5,40.5,0,0,0,15.43-6.275l0.986-.721a7.359,7.359,0,1,0-8.885-11.734ZM65.22,311.936A7.359,7.359,0,0,0,51.013,308.1a49.2,49.2,0,0,0-1.656,10.337c-0.037.846-.059,1.7-0.059,2.6,0.007,1.442.074,2.884,0.214,4.319a7.359,7.359,0,0,0,7.317,6.606c0.243,0,.493-0.014.758-0.036a7.377,7.377,0,0,0,6.581-8.071c-0.1-.964-0.14-1.942-0.147-2.869,0-.611.022-1.222,0.052-1.825A34.258,34.258,0,0,1,65.22,311.936ZM329.039,197.225a43.317,43.317,0,0,0-17.564,1.332,7.356,7.356,0,0,0,2,14.434,7.193,7.193,0,0,0,2-.279,28.752,28.752,0,0,1,11.6-.9A7.361,7.361,0,1,0,329.039,197.225Zm14.65,36.447a7.353,7.353,0,0,0,4.858,9.2,7.213,7.213,0,0,0,2.172.331,7.346,7.346,0,0,0,7.03-5.186,31.309,31.309,0,0,0,1.347-7.085c0.037-.611.059-1.229,0.059-1.839a29.349,29.349,0,0,0-1.877-10.241,7.36,7.36,0,0,0-13.8,5.113,14.739,14.739,0,0,1,.957,5.12l-0.022.861A16.585,16.585,0,0,1,343.689,233.672ZM128.683,324.9c-4.314,2.023-8.709,3.9-13.059,5.584a7.358,7.358,0,0,0,2.657,14.221,7.265,7.265,0,0,0,2.65-.493c4.675-1.8,9.386-3.818,14.009-5.981A7.363,7.363,0,0,0,128.683,324.9ZM75.092,294.272a7.358,7.358,0,0,0,3.519-.9,18.009,18.009,0,0,1,6.706-2.126,11.906,11.906,0,0,1,2.989.015,7.354,7.354,0,1,0,1.929-14.582,27.237,27.237,0,0,0-6.559-.059,32.754,32.754,0,0,0-12.117,3.833A7.358,7.358,0,0,0,75.092,294.272Zm-1.531,57.686a36.437,36.437,0,0,0,4.814.912,46.859,46.859,0,0,0,5.661.346,54.7,54.7,0,0,0,6.92-.456,7.356,7.356,0,1,0-1.84-14.6,36.1,36.1,0,0,1-8.952.11,24.508,24.508,0,0,1-2.9-.552A7.355,7.355,0,1,0,73.561,351.958Z"/>
</svg>
