<svg xmlns="http://www.w3.org/2000/svg" width="19.97" height="21" viewBox="0 0 19.97 21">
  <defs>
    <style>
      .cls-1 {
        fill: #eff3ff;
        fill-rule: evenodd;
      }
    </style>
  </defs>
  <path id="Forma_1" data-name="Forma 1" class="cls-1" d="M1298.69,171.127l-4.93-5.2a8.334,8.334,0,1,0-6.4,3.028,8.193,8.193,0,0,0,4.79-1.534l4.97,5.237a1.047,1.047,0,0,0,.78.339,1.1,1.1,0,0,0,.76-0.308A1.128,1.128,0,0,0,1298.69,171.127Zm-11.33-16.916a6.268,6.268,0,1,1-6.18,6.267A6.23,6.23,0,0,1,1287.36,154.211Z" transform="translate(-1279 -152)"/>
</svg>
