<svg xmlns="http://www.w3.org/2000/svg" width="17" height="17" viewBox="0 0 17 17">
  <metadata><?xpacket begin="﻿" id="W5M0MpCehiHzreSzNTczkc9d"?>
<x:xmpmeta xmlns:x="adobe:ns:meta/" x:xmptk="Adobe XMP Core 5.6-c140 79.160451, 2017/05/06-01:08:21        ">
   <rdf:RDF xmlns:rdf="http://www.w3.org/1999/02/22-rdf-syntax-ns#">
      <rdf:Description rdf:about=""/>
   </rdf:RDF>
</x:xmpmeta>
                                                                                                    
                                                                                                    
                                                                                                    
                                                                                                    
                                                                                                    
                                                                                                    
                                                                                                    
                                                                                                    
                                                                                                    
                                                                                                    
                                                                                                    
                                                                                                    
                                                                                                    
                                                                                                    
                                                                                                    
                                                                                                    
                                                                                                    
                                                                                                    
                                                                                                    
                                                                                                    
                           
<?xpacket end="w"?></metadata>
<defs>
    <style>
      .cls-1 {
        fill: #3d4769;
        fill-rule: evenodd;
      }
    </style>
  </defs>
  <path id="Forma_1_copy_2" data-name="Forma 1 copy 2" class="cls-1" d="M923.992,1785.42a0.833,0.833,0,0,1-.252.72l-2.394,2.37a1.3,1.3,0,0,1-.423.31,1.743,1.743,0,0,1-.513.16,0.63,0.63,0,0,0-.108.01,1.568,1.568,0,0,1-.234.01,8.1,8.1,0,0,1-1.107-.12,8.8,8.8,0,0,1-1.871-.57,16.251,16.251,0,0,1-2.511-1.38,18.557,18.557,0,0,1-2.987-2.52,19.585,19.585,0,0,1-2.088-2.38,17.257,17.257,0,0,1-1.331-2.1,11.255,11.255,0,0,1-.756-1.74,9.8,9.8,0,0,1-.342-1.35,4.529,4.529,0,0,1-.072-0.9q0.018-.315.018-0.36a1.77,1.77,0,0,1,.162-0.51,1.407,1.407,0,0,1,.306-0.42l2.393-2.4a0.783,0.783,0,0,1,.576-0.25,0.667,0.667,0,0,1,.414.13,1.313,1.313,0,0,1,.306.34l1.926,3.65a0.888,0.888,0,0,1,.09.63,1.142,1.142,0,0,1-.306.58l-0.882.88a0.419,0.419,0,0,0-.063.12,0.429,0.429,0,0,0-.027.13,3.137,3.137,0,0,0,.324.87,7.557,7.557,0,0,0,.666,1.05,11.325,11.325,0,0,0,1.277,1.43,10.876,10.876,0,0,0,1.44,1.29,8.678,8.678,0,0,0,1.053.68,2.986,2.986,0,0,0,.648.26l0.225,0.04a0.941,0.941,0,0,0,.117-0.02,0.26,0.26,0,0,0,.117-0.07l1.025-1.04a1.116,1.116,0,0,1,.756-0.29,0.96,0.96,0,0,1,.486.11h0.018l3.474,2.05A0.925,0.925,0,0,1,923.992,1785.42Z" transform="translate(-907 -1772)"/>
</svg>
