<svg xmlns="http://www.w3.org/2000/svg" style="display:none"><defs><style>.cls-1{fill:#21377f;fill-rule:evenodd}</style><style>.cls-1{fill:#21387f;fill-rule:evenodd}</style><style>.cls-1{fill:#3d4769;fill-rule:evenodd}</style><style>.cls-1{fill:#eff3ff;fill-rule:evenodd}</style></defs><symbol id="icon-mail" viewBox="0 0 17 17"><path id="paper-plane-1_copy" data-name="paper-plane-1 copy" class="cls-1" d="M1081.37 65.807V71l2.31-3.138zM1092 54l-4.25 15.584-5.76-5.128 5.53-5.832-7.41 5.12L1075 62.5z" transform="translate(-1075 -54)"/></symbol><symbol id="icon-map" viewBox="0 0 15 20"><path id="Shape_1_copy" data-name="Shape 1 copy" class="cls-1" d="M1286.5 52a7.38 7.38 0 0 0-7.5 7.243c0 4.956 6.71 12.233 7 12.54a.686.686 0 0 0 1 0c.29-.308 7-7.584 7-12.54a7.38 7.38 0 0 0-7.5-7.243zm0 10.887a3.646 3.646 0 1 1 3.77-3.644 3.712 3.712 0 0 1-3.77 3.644z" transform="translate(-1279 -52)"/></symbol><symbol id="icon-phone" viewBox="0 0 17 17"><path id="Forma_1_copy_2" data-name="Forma 1 copy 2" class="cls-1" d="M923.992 1785.42a.833.833 0 0 1-.252.72l-2.394 2.37a1.3 1.3 0 0 1-.423.31 1.743 1.743 0 0 1-.513.16.63.63 0 0 0-.108.01 1.568 1.568 0 0 1-.234.01 8.1 8.1 0 0 1-1.107-.12 8.8 8.8 0 0 1-1.871-.57 16.251 16.251 0 0 1-2.511-1.38 18.557 18.557 0 0 1-2.987-2.52 19.585 19.585 0 0 1-2.088-2.38 17.257 17.257 0 0 1-1.331-2.1 11.255 11.255 0 0 1-.756-1.74 9.8 9.8 0 0 1-.342-1.35 4.529 4.529 0 0 1-.072-.9q.018-.315.018-.36a1.77 1.77 0 0 1 .162-.51 1.407 1.407 0 0 1 .306-.42l2.393-2.4a.783.783 0 0 1 .576-.25.667.667 0 0 1 .414.13 1.313 1.313 0 0 1 .306.34l1.926 3.65a.888.888 0 0 1 .09.63 1.142 1.142 0 0 1-.306.58l-.882.88a.419.419 0 0 0-.063.12.429.429 0 0 0-.027.13 3.137 3.137 0 0 0 .324.87 7.557 7.557 0 0 0 .666 1.05 11.325 11.325 0 0 0 1.277 1.43 10.876 10.876 0 0 0 1.44 1.29 8.678 8.678 0 0 0 1.053.68 2.986 2.986 0 0 0 .648.26l.225.04a.941.941 0 0 0 .117-.02.26.26 0 0 0 .117-.07l1.025-1.04a1.116 1.116 0 0 1 .756-.29.96.96 0 0 1 .486.11h.018l3.474 2.05a.925.925 0 0 1 .45.6z" transform="translate(-907 -1772)"/></symbol><symbol id="icon-search" viewBox="0 0 19.97 21"><path id="Forma_1" data-name="Forma 1" class="cls-1" d="M1298.69 156.127l-4.93-5.2a8.334 8.334 0 1 0-6.4 3.028 8.193 8.193 0 0 0 4.79-1.534l4.97 5.237a1.047 1.047 0 0 0 .78.339 1.1 1.1 0 0 0 .76-.308 1.128 1.128 0 0 0 .03-1.562zm-11.33-16.916a6.268 6.268 0 1 1-6.18 6.267 6.23 6.23 0 0 1 6.18-6.267z" transform="translate(-1279 -137)"/></symbol><symbol id="temp-icon-left-arrow" viewBox="0 0 31.494 31.494"><path d="M10.273 5.01a1.117 1.117 0 0 1 1.587 1.57l-8.047 8.047h26.554c.62 0 1.127.492 1.127 1.11 0 .62-.508 1.128-1.127 1.128H3.813l8.047 8.032c.43.444.43 1.16 0 1.587a1.112 1.112 0 0 1-1.587 0L.32 16.532a1.12 1.12 0 0 1 0-1.57l9.953-9.953z" fill="#1E201D"/></symbol><symbol id="temp-icon-right-arrow" viewBox="0 0 31.49 31.49"><path d="M21.205 5.007a1.117 1.117 0 0 0-1.587 1.57l8.047 8.048H1.11c-.618 0-1.11.493-1.11 1.112 0 .62.492 1.127 1.11 1.127h26.555l-8.047 8.032c-.43.444-.43 1.16 0 1.587.444.444 1.16.444 1.587 0l9.952-9.952a1.092 1.092 0 0 0 0-1.57l-9.952-9.95z" fill="#1E201D"/></symbol></svg>